<svg width="163" height="23" viewBox="0 0 163 23" fill="none" xmlns="http://www.w3.org/2000/svg">
<ellipse cx="12.4583" cy="11.5" rx="12.4583" ry="11.5" fill="#838383"/>
<ellipse cx="43.5" cy="13.3077" rx="10.5" ry="9.69231" fill="#838383"/>
<ellipse cx="74.5" cy="15.1538" rx="8.5" ry="7.84615" fill="#838383"/>
<ellipse cx="106" cy="16.5385" rx="7" ry="6.46154" fill="#838383"/>
<path d="M139.417 17.5C139.417 20.5376 136.749 23 133.458 23C130.168 23 127.5 20.5376 127.5 17.5C127.5 14.4624 130.168 12 133.458 12C136.749 12 139.417 14.4624 139.417 17.5Z" fill="#838383"/>
<path d="M162.667 19C162.667 21.2092 160.727 23 158.333 23C155.94 23 154 21.2092 154 19C154 16.7909 155.94 15 158.333 15C160.727 15 162.667 16.7909 162.667 19Z" fill="#838383"/>
</svg>
