<svg width="400" height="53" viewBox="0 0 400 53" fill="none" xmlns="http://www.w3.org/2000/svg">
<rect width="400" height="52.1739" rx="26.087" fill="#D9D9D9"/>
<path d="M133.906 22.5944C133.846 22.0565 133.596 21.6398 133.156 21.3444C132.717 21.0451 132.164 20.8955 131.497 20.8955C131.02 20.8955 130.607 20.9713 130.259 21.1228C129.91 21.2705 129.639 21.4751 129.446 21.7364C129.257 21.994 129.162 22.2876 129.162 22.6171C129.162 22.8936 129.226 23.1323 129.355 23.333C129.488 23.5338 129.66 23.7023 129.872 23.8387C130.088 23.9713 130.319 24.083 130.565 24.1739C130.812 24.261 131.048 24.333 131.276 24.3898L132.412 24.6853C132.783 24.7762 133.164 24.8993 133.554 25.0546C133.944 25.2099 134.306 25.4144 134.639 25.6682C134.973 25.922 135.241 26.2364 135.446 26.6114C135.654 26.9864 135.759 27.4353 135.759 27.958C135.759 28.6171 135.588 29.2023 135.247 29.7137C134.91 30.2251 134.42 30.6285 133.776 30.9239C133.135 31.2194 132.361 31.3671 131.452 31.3671C130.58 31.3671 129.827 31.2288 129.19 30.9523C128.554 30.6758 128.056 30.2838 127.696 29.7762C127.336 29.2648 127.137 28.6588 127.099 27.958H128.861C128.895 28.3785 129.031 28.7288 129.27 29.0091C129.512 29.2857 129.821 29.4921 130.196 29.6285C130.575 29.761 130.99 29.8273 131.44 29.8273C131.937 29.8273 132.378 29.7497 132.764 29.5944C133.154 29.4353 133.461 29.2156 133.685 28.9353C133.908 28.6512 134.02 28.3198 134.02 27.941C134.02 27.5963 133.921 27.3141 133.724 27.0944C133.531 26.8747 133.268 26.6929 132.935 26.5489C132.605 26.405 132.232 26.2781 131.815 26.1682L130.44 25.7932C129.509 25.5394 128.77 25.1663 128.224 24.6739C127.683 24.1815 127.412 23.53 127.412 22.7194C127.412 22.0489 127.594 21.4637 127.957 20.9637C128.321 20.4637 128.813 20.0754 129.435 19.7989C130.056 19.5186 130.757 19.3785 131.537 19.3785C132.325 19.3785 133.02 19.5167 133.622 19.7932C134.228 20.0698 134.705 20.4504 135.054 20.9353C135.402 21.4163 135.584 21.9694 135.599 22.5944H133.906ZM137.72 31.1739V22.4466H139.419V31.1739H137.72ZM138.578 21.1001C138.283 21.1001 138.029 21.0016 137.817 20.8046C137.608 20.6038 137.504 20.3652 137.504 20.0887C137.504 19.8084 137.608 19.5698 137.817 19.3728C138.029 19.172 138.283 19.0716 138.578 19.0716C138.874 19.0716 139.125 19.172 139.334 19.3728C139.546 19.5698 139.652 19.8084 139.652 20.0887C139.652 20.3652 139.546 20.6038 139.334 20.8046C139.125 21.0016 138.874 21.1001 138.578 21.1001ZM145.364 34.6285C144.67 34.6285 144.074 34.5376 143.574 34.3557C143.078 34.1739 142.672 33.9334 142.358 33.6341C142.044 33.3349 141.809 33.0073 141.653 32.6512L143.114 32.0489C143.216 32.2156 143.352 32.3917 143.523 32.5773C143.697 32.7667 143.932 32.9277 144.227 33.0603C144.527 33.1929 144.911 33.2591 145.381 33.2591C146.025 33.2591 146.557 33.1019 146.977 32.7876C147.398 32.4769 147.608 31.9807 147.608 31.2989V29.583H147.5C147.398 29.7686 147.25 29.9751 147.057 30.2023C146.867 30.4296 146.606 30.6266 146.273 30.7932C145.939 30.9599 145.506 31.0432 144.972 31.0432C144.282 31.0432 143.661 30.8823 143.108 30.5603C142.559 30.2345 142.123 29.7554 141.801 29.1228C141.483 28.4864 141.324 27.7042 141.324 26.7762C141.324 25.8482 141.481 25.0527 141.795 24.3898C142.114 23.7269 142.549 23.2194 143.102 22.8671C143.655 22.511 144.282 22.333 144.983 22.333C145.525 22.333 145.962 22.4239 146.295 22.6057C146.629 22.7838 146.888 22.9921 147.074 23.2307C147.263 23.4694 147.409 23.6796 147.511 23.8614H147.636V22.4466H149.301V31.3671C149.301 32.1171 149.127 32.7326 148.778 33.2137C148.43 33.6948 147.958 34.0508 147.364 34.2819C146.773 34.5129 146.106 34.6285 145.364 34.6285ZM145.347 29.6341C145.835 29.6341 146.248 29.5205 146.585 29.2932C146.926 29.0622 147.184 28.7326 147.358 28.3046C147.536 27.8728 147.625 27.3557 147.625 26.7535C147.625 26.1663 147.538 25.6493 147.364 25.2023C147.189 24.7554 146.934 24.4069 146.597 24.1569C146.259 23.9031 145.843 23.7762 145.347 23.7762C144.835 23.7762 144.409 23.9088 144.068 24.1739C143.727 24.4353 143.47 24.7913 143.295 25.2421C143.125 25.6929 143.04 26.1966 143.04 26.7535C143.04 27.3254 143.127 27.8273 143.301 28.2591C143.475 28.691 143.733 29.0281 144.074 29.2705C144.419 29.5129 144.843 29.6341 145.347 29.6341ZM153.278 25.9921V31.1739H151.58V22.4466H153.21V23.8671H153.318C153.519 23.405 153.833 23.0338 154.261 22.7535C154.693 22.4732 155.237 22.333 155.892 22.333C156.487 22.333 157.008 22.458 157.455 22.708C157.902 22.9542 158.248 23.3216 158.494 23.8103C158.741 24.2989 158.864 24.9031 158.864 25.6228V31.1739H157.165V25.8273C157.165 25.1948 157 24.7004 156.67 24.3444C156.341 23.9845 155.888 23.8046 155.312 23.8046C154.919 23.8046 154.568 23.8898 154.261 24.0603C153.958 24.2307 153.718 24.4807 153.54 24.8103C153.366 25.136 153.278 25.53 153.278 25.9921ZM165.376 31.1739V22.4466H167.075V31.1739H165.376ZM166.234 21.1001C165.939 21.1001 165.685 21.0016 165.473 20.8046C165.265 20.6038 165.161 20.3652 165.161 20.0887C165.161 19.8084 165.265 19.5698 165.473 19.3728C165.685 19.172 165.939 19.0716 166.234 19.0716C166.53 19.0716 166.782 19.172 166.99 19.3728C167.202 19.5698 167.308 19.8084 167.308 20.0887C167.308 20.3652 167.202 20.6038 166.99 20.8046C166.782 21.0016 166.53 21.1001 166.234 21.1001ZM171.06 25.9921V31.1739H169.361V22.4466H170.991V23.8671H171.099C171.3 23.405 171.615 23.0338 172.043 22.7535C172.474 22.4732 173.018 22.333 173.673 22.333C174.268 22.333 174.789 22.458 175.236 22.708C175.683 22.9542 176.029 23.3216 176.276 23.8103C176.522 24.2989 176.645 24.9031 176.645 25.6228V31.1739H174.946V25.8273C174.946 25.1948 174.781 24.7004 174.452 24.3444C174.122 23.9845 173.67 23.8046 173.094 23.8046C172.7 23.8046 172.349 23.8898 172.043 24.0603C171.74 24.2307 171.499 24.4807 171.321 24.8103C171.147 25.136 171.06 25.53 171.06 25.9921ZM185.05 31.1739L182.482 22.4466H184.237L185.947 28.8557H186.033L187.749 22.4466H189.504L191.209 28.8273H191.294L192.993 22.4466H194.749L192.186 31.1739H190.453L188.68 24.8728H188.55L186.777 31.1739H185.05ZM196.361 31.1739V22.4466H198.06V31.1739H196.361ZM197.219 21.1001C196.923 21.1001 196.67 21.0016 196.457 20.8046C196.249 20.6038 196.145 20.3652 196.145 20.0887C196.145 19.8084 196.249 19.5698 196.457 19.3728C196.67 19.172 196.923 19.0716 197.219 19.0716C197.514 19.0716 197.766 19.172 197.974 19.3728C198.187 19.5698 198.293 19.8084 198.293 20.0887C198.293 20.3652 198.187 20.6038 197.974 20.8046C197.766 21.0016 197.514 21.1001 197.219 21.1001ZM204.419 22.4466V23.8103H199.652V22.4466H204.419ZM200.93 20.3557H202.629V28.6114C202.629 28.941 202.679 29.1891 202.777 29.3557C202.875 29.5186 203.002 29.6304 203.158 29.691C203.317 29.7478 203.489 29.7762 203.675 29.7762C203.811 29.7762 203.93 29.7667 204.033 29.7478C204.135 29.7288 204.214 29.7137 204.271 29.7023L204.578 31.1057C204.48 31.1436 204.339 31.1815 204.158 31.2194C203.976 31.261 203.749 31.2838 203.476 31.2876C203.029 31.2951 202.612 31.2156 202.226 31.0489C201.839 30.8823 201.527 30.6247 201.288 30.2762C201.05 29.9277 200.93 29.4902 200.93 28.9637V20.3557ZM208.185 25.9921V31.1739H206.486V19.5376H208.162V23.8671H208.27C208.474 23.3974 208.787 23.0243 209.207 22.7478C209.628 22.4713 210.177 22.333 210.855 22.333C211.454 22.333 211.976 22.4561 212.423 22.7023C212.874 22.9485 213.223 23.316 213.469 23.8046C213.719 24.2894 213.844 24.8955 213.844 25.6228V31.1739H212.145V25.8273C212.145 25.1872 211.98 24.691 211.651 24.3387C211.321 23.9826 210.863 23.8046 210.276 23.8046C209.874 23.8046 209.514 23.8898 209.196 24.0603C208.882 24.2307 208.634 24.4807 208.452 24.8103C208.274 25.136 208.185 25.53 208.185 25.9921ZM228.357 23.2137C228.247 22.869 228.099 22.5603 227.913 22.2876C227.732 22.011 227.514 21.7762 227.26 21.583C227.006 21.386 226.716 21.2364 226.391 21.1341C226.069 21.0319 225.714 20.9807 225.328 20.9807C224.673 20.9807 224.082 21.1493 223.555 21.4864C223.029 21.8235 222.612 22.3179 222.305 22.9694C222.002 23.6171 221.851 24.4107 221.851 25.3501C221.851 26.2932 222.004 27.0906 222.311 27.7421C222.618 28.3936 223.038 28.8879 223.572 29.2251C224.107 29.5622 224.714 29.7307 225.396 29.7307C226.029 29.7307 226.58 29.6019 227.05 29.3444C227.523 29.0868 227.889 28.7232 228.146 28.2535C228.408 27.78 228.538 27.2232 228.538 26.583L228.993 26.6682H225.663V25.2194H230.237V26.5432C230.237 27.5205 230.029 28.369 229.612 29.0887C229.199 29.8046 228.627 30.3576 227.896 30.7478C227.169 31.1379 226.336 31.333 225.396 31.333C224.343 31.333 223.419 31.0906 222.624 30.6057C221.832 30.1209 221.214 29.4334 220.771 28.5432C220.328 27.6493 220.107 26.5887 220.107 25.3614C220.107 24.4334 220.235 23.6001 220.493 22.8614C220.75 22.1228 221.112 21.4959 221.578 20.9807C222.048 20.4618 222.599 20.066 223.232 19.7932C223.868 19.5167 224.563 19.3785 225.317 19.3785C225.946 19.3785 226.531 19.4713 227.072 19.6569C227.618 19.8425 228.103 20.1057 228.527 20.4466C228.955 20.7876 229.309 21.1929 229.589 21.6626C229.87 22.1285 230.059 22.6455 230.158 23.2137H228.357ZM236.006 31.3501C235.188 31.3501 234.473 31.1626 233.864 30.7876C233.254 30.4126 232.78 29.8879 232.443 29.2137C232.106 28.5394 231.938 27.7516 231.938 26.8501C231.938 25.9448 232.106 25.1531 232.443 24.4751C232.78 23.797 233.254 23.2705 233.864 22.8955C234.473 22.5205 235.188 22.333 236.006 22.333C236.824 22.333 237.538 22.5205 238.148 22.8955C238.758 23.2705 239.231 23.797 239.568 24.4751C239.905 25.1531 240.074 25.9448 240.074 26.8501C240.074 27.7516 239.905 28.5394 239.568 29.2137C239.231 29.8879 238.758 30.4126 238.148 30.7876C237.538 31.1626 236.824 31.3501 236.006 31.3501ZM236.011 29.9239C236.542 29.9239 236.981 29.7838 237.33 29.5035C237.678 29.2232 237.936 28.8501 238.102 28.3841C238.273 27.9182 238.358 27.405 238.358 26.8444C238.358 26.2876 238.273 25.7762 238.102 25.3103C237.936 24.8406 237.678 24.4637 237.33 24.1796C236.981 23.8955 236.542 23.7535 236.011 23.7535C235.477 23.7535 235.034 23.8955 234.682 24.1796C234.333 24.4637 234.074 24.8406 233.903 25.3103C233.737 25.7762 233.653 26.2876 233.653 26.8444C233.653 27.405 233.737 27.9182 233.903 28.3841C234.074 28.8501 234.333 29.2232 234.682 29.5035C235.034 29.7838 235.477 29.9239 236.011 29.9239ZM245.646 31.3501C244.828 31.3501 244.114 31.1626 243.504 30.7876C242.894 30.4126 242.421 29.8879 242.084 29.2137C241.747 28.5394 241.578 27.7516 241.578 26.8501C241.578 25.9448 241.747 25.1531 242.084 24.4751C242.421 23.797 242.894 23.2705 243.504 22.8955C244.114 22.5205 244.828 22.333 245.646 22.333C246.464 22.333 247.179 22.5205 247.788 22.8955C248.398 23.2705 248.872 23.797 249.209 24.4751C249.546 25.1531 249.714 25.9448 249.714 26.8501C249.714 27.7516 249.546 28.5394 249.209 29.2137C248.872 29.8879 248.398 30.4126 247.788 30.7876C247.179 31.1626 246.464 31.3501 245.646 31.3501ZM245.652 29.9239C246.182 29.9239 246.622 29.7838 246.97 29.5035C247.319 29.2232 247.576 28.8501 247.743 28.3841C247.913 27.9182 247.999 27.405 247.999 26.8444C247.999 26.2876 247.913 25.7762 247.743 25.3103C247.576 24.8406 247.319 24.4637 246.97 24.1796C246.622 23.8955 246.182 23.7535 245.652 23.7535C245.118 23.7535 244.675 23.8955 244.322 24.1796C243.974 24.4637 243.714 24.8406 243.544 25.3103C243.377 25.7762 243.294 26.2876 243.294 26.8444C243.294 27.405 243.377 27.9182 243.544 28.3841C243.714 28.8501 243.974 29.2232 244.322 29.5035C244.675 29.7838 245.118 29.9239 245.652 29.9239ZM255.27 34.6285C254.577 34.6285 253.98 34.5376 253.48 34.3557C252.984 34.1739 252.579 33.9334 252.264 33.6341C251.95 33.3349 251.715 33.0073 251.56 32.6512L253.02 32.0489C253.122 32.2156 253.259 32.3917 253.429 32.5773C253.603 32.7667 253.838 32.9277 254.134 33.0603C254.433 33.1929 254.817 33.2591 255.287 33.2591C255.931 33.2591 256.463 33.1019 256.884 32.7876C257.304 32.4769 257.514 31.9807 257.514 31.2989V29.583H257.406C257.304 29.7686 257.156 29.9751 256.963 30.2023C256.774 30.4296 256.512 30.6266 256.179 30.7932C255.846 30.9599 255.412 31.0432 254.878 31.0432C254.188 31.0432 253.567 30.8823 253.014 30.5603C252.465 30.2345 252.029 29.7554 251.707 29.1228C251.389 28.4864 251.23 27.7042 251.23 26.7762C251.23 25.8482 251.387 25.0527 251.702 24.3898C252.02 23.7269 252.455 23.2194 253.009 22.8671C253.562 22.511 254.188 22.333 254.889 22.333C255.431 22.333 255.868 22.4239 256.202 22.6057C256.535 22.7838 256.795 22.9921 256.98 23.2307C257.17 23.4694 257.315 23.6796 257.418 23.8614H257.543V22.4466H259.207V31.3671C259.207 32.1171 259.033 32.7326 258.685 33.2137C258.336 33.6948 257.865 34.0508 257.27 34.2819C256.679 34.5129 256.012 34.6285 255.27 34.6285ZM255.253 29.6341C255.741 29.6341 256.154 29.5205 256.491 29.2932C256.832 29.0622 257.09 28.7326 257.264 28.3046C257.442 27.8728 257.531 27.3557 257.531 26.7535C257.531 26.1663 257.444 25.6493 257.27 25.2023C257.096 24.7554 256.84 24.4069 256.503 24.1569C256.166 23.9031 255.749 23.7762 255.253 23.7762C254.741 23.7762 254.315 23.9088 253.974 24.1739C253.634 24.4353 253.376 24.7913 253.202 25.2421C253.031 25.6929 252.946 26.1966 252.946 26.7535C252.946 27.3254 253.033 27.8273 253.207 28.2591C253.382 28.691 253.639 29.0281 253.98 29.2705C254.325 29.5129 254.749 29.6341 255.253 29.6341ZM263.185 19.5376V31.1739H261.486V19.5376H263.185ZM269.232 31.3501C268.372 31.3501 267.631 31.1663 267.01 30.7989C266.393 30.4277 265.915 29.9069 265.578 29.2364C265.245 28.5622 265.078 27.7724 265.078 26.8671C265.078 25.9732 265.245 25.1853 265.578 24.5035C265.915 23.8216 266.385 23.2894 266.987 22.9069C267.593 22.5243 268.302 22.333 269.112 22.333C269.605 22.333 270.082 22.4145 270.544 22.5773C271.006 22.7402 271.421 22.9959 271.788 23.3444C272.156 23.6929 272.446 24.1455 272.658 24.7023C272.87 25.2554 272.976 25.9277 272.976 26.7194V27.3216H266.038V26.0489H271.311C271.311 25.602 271.22 25.2061 271.038 24.8614C270.857 24.5129 270.601 24.2383 270.271 24.0376C269.946 23.8368 269.563 23.7364 269.124 23.7364C268.646 23.7364 268.23 23.8538 267.874 24.0887C267.521 24.3198 267.249 24.6228 267.055 24.9978C266.866 25.369 266.771 25.7724 266.771 26.208V27.2023C266.771 27.7857 266.874 28.2819 267.078 28.691C267.286 29.1001 267.576 29.4126 267.947 29.6285C268.319 29.8406 268.752 29.9466 269.249 29.9466C269.571 29.9466 269.864 29.9012 270.129 29.8103C270.394 29.7156 270.624 29.5754 270.817 29.3898C271.01 29.2042 271.158 28.9751 271.26 28.7023L272.868 28.9921C272.739 29.4656 272.508 29.8804 272.175 30.2364C271.845 30.5887 271.43 30.8633 270.93 31.0603C270.434 31.2535 269.868 31.3501 269.232 31.3501Z" fill="black"/>
<path opacity="0.987" fill-rule="evenodd" clip-rule="evenodd" d="M33.4434 16.0764C34.5256 15.9555 35.166 15.9555 36.3289 16.0764C38.3873 16.3811 40.2955 17.3326 41.7775 18.7933C40.7761 19.7399 39.7878 20.7003 38.8129 21.6743C36.9459 20.092 34.862 19.7268 32.5611 20.5786C30.8733 21.3549 29.698 22.6128 29.0352 24.3524C27.9521 23.546 26.8831 22.7209 25.8287 21.8774C25.7554 21.8388 25.6717 21.8247 25.5899 21.837C27.2648 18.6077 29.8821 16.687 33.4419 16.0749" fill="#F44336"/>
<path opacity="0.997" fill-rule="evenodd" clip-rule="evenodd" d="M25.5869 21.8371C25.6715 21.8241 25.7516 21.8375 25.8272 21.8774C26.8816 22.7209 27.9506 23.546 29.0337 24.3524C28.8633 25.0302 28.7558 25.7223 28.7128 26.4199C28.7496 27.0946 28.8566 27.7569 29.0337 28.4068L25.6675 31.0863C24.2016 28.0231 24.1747 24.94 25.5869 21.8371Z" fill="#FFC107"/>
<path opacity="0.999" fill-rule="evenodd" clip-rule="evenodd" d="M41.6178 34.3316C40.5697 33.4072 39.4724 32.5402 38.3307 31.7342C39.4752 30.9261 40.1698 29.8174 40.4146 28.4083H34.8063V24.5136C38.0406 24.4867 41.2735 24.5141 44.5048 24.5957C45.1179 27.9246 44.4098 30.9261 42.3806 33.6001C42.1393 33.8566 41.8838 34.1008 41.6178 34.3316Z" fill="#448AFF"/>
<path opacity="0.993" fill-rule="evenodd" clip-rule="evenodd" d="M29.0337 28.4082C30.2578 31.4505 32.5019 32.8707 35.7661 32.6686C36.6824 32.5626 37.561 32.2425 38.3307 31.7342C39.4732 32.5422 40.5689 33.4081 41.6178 34.3316C39.9558 35.825 37.8368 36.7112 35.6064 36.8454C35.0997 36.8859 34.5905 36.8859 34.0838 36.8454C30.2842 36.3976 27.4787 34.4779 25.6675 31.0863L29.0337 28.4082Z" fill="#43A047"/>
</svg>
