<svg width="445" height="283" viewBox="0 0 445 283" fill="none" xmlns="http://www.w3.org/2000/svg">
<path d="M55.5328 2.87183H209.074C214.087 2.87183 218.879 4.94059 222.316 8.5896L273.67 63.1042C276.849 66.4794 278.62 70.942 278.62 75.5789V260.428C278.62 270.475 270.475 278.62 260.428 278.62H55.5328C45.486 278.62 37.3406 270.475 37.3405 260.428V21.0642C37.3405 11.0172 45.4859 2.87183 55.5328 2.87183Z" fill="#D9D9D9" stroke="#838383" stroke-width="1.91491"/>
<path d="M55.5328 2.87183H209.074C214.087 2.87183 218.879 4.94059 222.316 8.5896L273.67 63.1042C276.849 66.4794 278.62 70.942 278.62 75.5789V260.428C278.62 270.475 270.475 278.62 260.428 278.62H55.5328C45.486 278.62 37.3406 270.475 37.3405 260.428V21.0642C37.3405 11.0172 45.4859 2.87183 55.5328 2.87183Z" fill="#D9D9D9" stroke="#838383" stroke-width="1.91491"/>
<g filter="url(#filter0_d_27_304)">
<path d="M216.385 1.91479L279.66 66.9842L217.433 67.971L216.385 1.91479Z" fill="#838383"/>
<path d="M277.426 66.0613L218.375 66.9978L217.38 4.31226L277.426 66.0613Z" stroke="#838383" stroke-width="1.91491"/>
</g>
<g filter="url(#filter1_d_27_304)">
<rect x="7.65967" y="164.682" width="191.491" height="74.6816" rx="19.1491" fill="#838383"/>
</g>
<path d="M80.45 135.959L235.534 135.959" stroke="#838383" stroke-width="3.82983"/>
<path d="M80.4263 68.9363L148.406 68.9363" stroke="#838383" stroke-width="3.82983"/>
<path d="M80.4499 113.937L176.172 113.937M80.45 91.9158L202.981 91.9158" stroke="#838383" stroke-width="3.82983"/>
<path d="M60.2277 220.587C59.2677 220.587 58.4197 220.523 57.6837 220.395C56.9477 220.267 56.1637 220.027 55.3317 219.675L56.0517 213.963C56.9157 214.411 57.8117 214.635 58.7397 214.635C59.8597 214.635 60.5797 214.331 60.8997 213.723C61.2517 213.083 61.4277 212.267 61.4277 211.275V183.915H68.4837V211.467C68.4837 214.251 67.8117 216.475 66.4677 218.139C65.1237 219.771 63.0437 220.587 60.2277 220.587ZM83.3048 220.683C81.2568 220.683 79.4168 220.299 77.7848 219.531C76.1528 218.731 74.8728 217.531 73.9448 215.931C73.0168 214.299 72.5528 212.235 72.5528 209.739L78.8888 209.019C78.8888 210.779 79.2728 212.203 80.0408 213.291C80.8408 214.379 81.9768 214.923 83.4488 214.923C84.6648 214.923 85.5768 214.571 86.1848 213.867C86.7928 213.131 87.0968 212.155 87.0968 210.939C87.0968 209.627 86.7608 208.603 86.0888 207.867C85.4168 207.131 84.5528 206.459 83.4968 205.851L79.1288 203.307C77.4328 202.315 75.9928 201.003 74.8088 199.371C73.6568 197.707 73.0808 195.707 73.0808 193.371C73.0808 191.451 73.4968 189.739 74.3288 188.235C75.1928 186.699 76.4248 185.483 78.0248 184.587C79.6568 183.691 81.5928 183.243 83.8328 183.243C86.8408 183.243 89.2568 184.107 91.0808 185.835C92.9368 187.563 93.8968 190.155 93.9608 193.611L87.6248 195.003C87.6248 191.003 86.3128 189.003 83.6888 189.003C82.6008 189.003 81.7368 189.339 81.0968 190.011C80.4888 190.683 80.1848 191.611 80.1848 192.795C80.1848 193.947 80.4728 194.891 81.0488 195.627C81.6568 196.363 82.5048 197.051 83.5928 197.691L87.9128 200.283C89.8968 201.467 91.4488 202.875 92.5688 204.507C93.7208 206.107 94.2968 208.091 94.2968 210.459C94.2968 212.603 93.8328 214.443 92.9048 215.979C91.9768 217.515 90.6808 218.683 89.0168 219.483C87.3848 220.283 85.4808 220.683 83.3048 220.683ZM109.632 220.587C106.88 220.587 104.624 219.819 102.864 218.283C101.136 216.747 99.872 214.587 99.072 211.803C98.272 208.987 97.872 205.691 97.872 201.915C97.872 198.107 98.272 194.811 99.072 192.027C99.872 189.243 101.136 187.083 102.864 185.547C104.624 184.011 106.88 183.243 109.632 183.243C112.416 183.243 114.672 184.011 116.4 185.547C118.128 187.083 119.392 189.243 120.192 192.027C120.992 194.811 121.392 198.107 121.392 201.915C121.392 205.691 120.992 208.987 120.192 211.803C119.392 214.587 118.128 216.747 116.4 218.283C114.672 219.819 112.416 220.587 109.632 220.587ZM109.632 214.443C110.624 214.443 111.408 214.107 111.984 213.435C112.592 212.763 113.04 211.835 113.328 210.651C113.616 209.467 113.792 208.123 113.856 206.619C113.952 205.115 114 203.547 114 201.915C114 200.283 113.952 198.715 113.856 197.211C113.792 195.707 113.616 194.363 113.328 193.179C113.04 191.995 112.592 191.067 111.984 190.395C111.408 189.723 110.624 189.387 109.632 189.387C108.64 189.387 107.856 189.723 107.28 190.395C106.704 191.067 106.272 191.995 105.984 193.179C105.696 194.363 105.504 195.707 105.408 197.211C105.312 198.715 105.264 200.283 105.264 201.915C105.264 203.547 105.312 205.115 105.408 206.619C105.504 208.123 105.696 209.467 105.984 210.651C106.272 211.835 106.704 212.763 107.28 213.435C107.856 214.107 108.64 214.443 109.632 214.443ZM142.297 220.347L132.553 197.739L132.601 198.075V219.915H125.977V184.203L132.361 183.435L141.625 205.467L141.577 204.891V183.915H148.201V219.579L142.297 220.347Z" fill="white"/>
<g filter="url(#filter2_d_27_304)">
<g filter="url(#filter3_d_27_304)">
<path d="M401.443 115.758C403.699 114.682 405.806 117.475 404.152 119.348L353.603 176.609C352.81 177.508 351.458 177.645 350.5 176.922L323.613 156.632C322.239 155.595 322.453 153.471 324.006 152.729L401.443 115.758Z" fill="#838383"/>
</g>
<g filter="url(#filter4_d_27_304)">
<path d="M358.528 182.98C357.548 182.241 357.324 180.861 358.018 179.849L401.592 116.377C402.983 114.35 406.157 115.634 405.747 118.059L391.295 203.507C391.008 205.204 389.024 205.993 387.65 204.956L358.528 182.98Z" fill="#D9D9D9"/>
</g>
<g filter="url(#filter5_d_27_304)">
<path d="M363.913 196.863C363.567 196.913 348.844 201.708 341.237 204.19C339.025 204.911 336.758 203.286 336.738 200.96C336.661 192.205 336.559 174.262 337.018 174.587C337.624 175.017 364.381 196.795 363.913 196.863Z" fill="#838383"/>
</g>
</g>
<g filter="url(#filter6_d_27_304)">
<g filter="url(#filter7_d_27_304)">
<path d="M306.456 240.073C307.834 240.424 307.738 242.412 306.333 242.628L263.398 249.258C262.724 249.362 262.083 248.929 261.928 248.265L257.561 229.611C257.338 228.657 258.204 227.807 259.153 228.048L306.456 240.073Z" fill="#838383"/>
</g>
<g filter="url(#filter8_d_27_304)">
<path d="M263.232 253.835C263.073 253.155 263.477 252.47 264.148 252.281L306.296 240.398C307.642 240.018 308.561 241.735 307.5 242.645L270.083 274.733C269.339 275.37 268.185 274.993 267.962 274.04L263.232 253.835Z" fill="#D9D9D9"/>
</g>
<g filter="url(#filter9_d_27_304)">
<path d="M260.533 261.863C260.363 261.759 252.183 258.496 247.954 256.812C246.725 256.322 246.326 254.787 247.163 253.763C250.317 249.908 256.803 242.028 256.885 242.337C256.993 242.746 260.762 262.003 260.533 261.863Z" fill="#838383"/>
</g>
</g>
<g filter="url(#filter10_d_27_304)">
<g filter="url(#filter11_d_27_304)">
<path d="M196.551 251.483C197.185 252.466 196.012 253.611 195.045 252.953L165.461 232.868C164.997 232.553 164.854 231.933 165.132 231.446L172.963 217.759C173.364 217.059 174.363 217.033 174.799 217.711L196.551 251.483Z" fill="#838383"/>
</g>
<g filter="url(#filter12_d_27_304)">
<path d="M162.795 235.532C163.08 235.033 163.707 234.848 164.218 235.11L196.273 251.588C197.296 252.115 196.888 253.664 195.738 253.617L155.201 251.964C154.396 251.931 153.913 251.056 154.313 250.357L162.795 235.532Z" fill="#D9D9D9"/>
</g>
<g filter="url(#filter13_d_27_304)">
<path d="M156.666 238.855C156.622 238.697 153.524 232.144 151.922 228.758C151.456 227.774 152.076 226.625 153.155 226.477C157.216 225.924 165.543 224.814 165.419 225.047C165.255 225.354 156.726 239.068 156.666 238.855Z" fill="#838383"/>
</g>
</g>
<defs>
<filter id="filter0_d_27_304" x="208.726" y="-0.000118732" width="78.5937" height="81.3755" filterUnits="userSpaceOnUse" color-interpolation-filters="sRGB">
<feFlood flood-opacity="0" result="BackgroundImageFix"/>
<feColorMatrix in="SourceAlpha" type="matrix" values="0 0 0 0 0 0 0 0 0 0 0 0 0 0 0 0 0 0 127 0" result="hardAlpha"/>
<feOffset dy="5.74474"/>
<feGaussianBlur stdDeviation="3.82983"/>
<feComposite in2="hardAlpha" operator="out"/>
<feColorMatrix type="matrix" values="0 0 0 0 0 0 0 0 0 0 0 0 0 0 0 0 0 0 0.25 0"/>
<feBlend mode="normal" in2="BackgroundImageFix" result="effect1_dropShadow_27_304"/>
<feBlend mode="normal" in="SourceGraphic" in2="effect1_dropShadow_27_304" result="shape"/>
</filter>
<filter id="filter1_d_27_304" x="1.38283e-05" y="164.682" width="206.811" height="90.0009" filterUnits="userSpaceOnUse" color-interpolation-filters="sRGB">
<feFlood flood-opacity="0" result="BackgroundImageFix"/>
<feColorMatrix in="SourceAlpha" type="matrix" values="0 0 0 0 0 0 0 0 0 0 0 0 0 0 0 0 0 0 127 0" result="hardAlpha"/>
<feOffset dy="7.65965"/>
<feGaussianBlur stdDeviation="3.82983"/>
<feComposite in2="hardAlpha" operator="out"/>
<feColorMatrix type="matrix" values="0 0 0 0 0 0 0 0 0 0 0 0 0 0 0 0 0 0 0.25 0"/>
<feBlend mode="normal" in2="BackgroundImageFix" result="effect1_dropShadow_27_304"/>
<feBlend mode="normal" in="SourceGraphic" in2="effect1_dropShadow_27_304" result="shape"/>
</filter>
<filter id="filter2_d_27_304" x="297.07" y="82.9148" width="152.097" height="162.035" filterUnits="userSpaceOnUse" color-interpolation-filters="sRGB">
<feFlood flood-opacity="0" result="BackgroundImageFix"/>
<feColorMatrix in="SourceAlpha" type="matrix" values="0 0 0 0 0 0 0 0 0 0 0 0 0 0 0 0 0 0 127 0" result="hardAlpha"/>
<feOffset dy="8.03214"/>
<feGaussianBlur stdDeviation="2.2949"/>
<feComposite in2="hardAlpha" operator="out"/>
<feColorMatrix type="matrix" values="0 0 0 0 0 0 0 0 0 0 0 0 0 0 0 0 0 0 0.25 0"/>
<feBlend mode="normal" in2="BackgroundImageFix" result="effect1_dropShadow_27_304"/>
<feBlend mode="normal" in="SourceGraphic" in2="effect1_dropShadow_27_304" result="shape"/>
</filter>
<filter id="filter3_d_27_304" x="318.11" y="115.519" width="91.2238" height="71.0463" filterUnits="userSpaceOnUse" color-interpolation-filters="sRGB">
<feFlood flood-opacity="0" result="BackgroundImageFix"/>
<feColorMatrix in="SourceAlpha" type="matrix" values="0 0 0 0 0 0 0 0 0 0 0 0 0 0 0 0 0 0 127 0" result="hardAlpha"/>
<feOffset dy="4.5898"/>
<feGaussianBlur stdDeviation="2.2949"/>
<feComposite in2="hardAlpha" operator="out"/>
<feColorMatrix type="matrix" values="0 0 0 0 0 0 0 0 0 0 0 0 0 0 0 0 0 0 0.25 0"/>
<feBlend mode="normal" in2="BackgroundImageFix" result="effect1_dropShadow_27_304"/>
<feBlend mode="normal" in="SourceGraphic" in2="effect1_dropShadow_27_304" result="shape"/>
</filter>
<filter id="filter4_d_27_304" x="353.025" y="115.372" width="57.3474" height="99.2289" filterUnits="userSpaceOnUse" color-interpolation-filters="sRGB">
<feFlood flood-opacity="0" result="BackgroundImageFix"/>
<feColorMatrix in="SourceAlpha" type="matrix" values="0 0 0 0 0 0 0 0 0 0 0 0 0 0 0 0 0 0 127 0" result="hardAlpha"/>
<feOffset dy="4.5898"/>
<feGaussianBlur stdDeviation="2.2949"/>
<feComposite in2="hardAlpha" operator="out"/>
<feColorMatrix type="matrix" values="0 0 0 0 0 0 0 0 0 0 0 0 0 0 0 0 0 0 0.25 0"/>
<feBlend mode="normal" in2="BackgroundImageFix" result="effect1_dropShadow_27_304"/>
<feBlend mode="normal" in="SourceGraphic" in2="effect1_dropShadow_27_304" result="shape"/>
</filter>
<filter id="filter5_d_27_304" x="332.081" y="174.583" width="36.4282" height="38.9596" filterUnits="userSpaceOnUse" color-interpolation-filters="sRGB">
<feFlood flood-opacity="0" result="BackgroundImageFix"/>
<feColorMatrix in="SourceAlpha" type="matrix" values="0 0 0 0 0 0 0 0 0 0 0 0 0 0 0 0 0 0 127 0" result="hardAlpha"/>
<feOffset dy="4.5898"/>
<feGaussianBlur stdDeviation="2.2949"/>
<feComposite in2="hardAlpha" operator="out"/>
<feColorMatrix type="matrix" values="0 0 0 0 0 0 0 0 0 0 0 0 0 0 0 0 0 0 0.25 0"/>
<feBlend mode="normal" in2="BackgroundImageFix" result="effect1_dropShadow_27_304"/>
<feBlend mode="normal" in="SourceGraphic" in2="effect1_dropShadow_27_304" result="shape"/>
</filter>
<filter id="filter6_d_27_304" x="237.049" y="215.915" width="83.5796" height="71.4723" filterUnits="userSpaceOnUse" color-interpolation-filters="sRGB">
<feFlood flood-opacity="0" result="BackgroundImageFix"/>
<feColorMatrix in="SourceAlpha" type="matrix" values="0 0 0 0 0 0 0 0 0 0 0 0 0 0 0 0 0 0 127 0" result="hardAlpha"/>
<feOffset dy="4.56854"/>
<feGaussianBlur stdDeviation="1.3053"/>
<feComposite in2="hardAlpha" operator="out"/>
<feColorMatrix type="matrix" values="0 0 0 0 0 0 0 0 0 0 0 0 0 0 0 0 0 0 0.25 0"/>
<feBlend mode="normal" in2="BackgroundImageFix" result="effect1_dropShadow_27_304"/>
<feBlend mode="normal" in="SourceGraphic" in2="effect1_dropShadow_27_304" result="shape"/>
</filter>
<filter id="filter7_d_27_304" x="254.915" y="228.007" width="55.1356" height="26.4878" filterUnits="userSpaceOnUse" color-interpolation-filters="sRGB">
<feFlood flood-opacity="0" result="BackgroundImageFix"/>
<feColorMatrix in="SourceAlpha" type="matrix" values="0 0 0 0 0 0 0 0 0 0 0 0 0 0 0 0 0 0 127 0" result="hardAlpha"/>
<feOffset dy="2.61059"/>
<feGaussianBlur stdDeviation="1.3053"/>
<feComposite in2="hardAlpha" operator="out"/>
<feColorMatrix type="matrix" values="0 0 0 0 0 0 0 0 0 0 0 0 0 0 0 0 0 0 0.25 0"/>
<feBlend mode="normal" in2="BackgroundImageFix" result="effect1_dropShadow_27_304"/>
<feBlend mode="normal" in="SourceGraphic" in2="effect1_dropShadow_27_304" result="shape"/>
</filter>
<filter id="filter8_d_27_304" x="260.587" y="240.344" width="49.9862" height="39.9258" filterUnits="userSpaceOnUse" color-interpolation-filters="sRGB">
<feFlood flood-opacity="0" result="BackgroundImageFix"/>
<feColorMatrix in="SourceAlpha" type="matrix" values="0 0 0 0 0 0 0 0 0 0 0 0 0 0 0 0 0 0 127 0" result="hardAlpha"/>
<feOffset dy="2.61059"/>
<feGaussianBlur stdDeviation="1.3053"/>
<feComposite in2="hardAlpha" operator="out"/>
<feColorMatrix type="matrix" values="0 0 0 0 0 0 0 0 0 0 0 0 0 0 0 0 0 0 0.25 0"/>
<feBlend mode="normal" in2="BackgroundImageFix" result="effect1_dropShadow_27_304"/>
<feBlend mode="normal" in="SourceGraphic" in2="effect1_dropShadow_27_304" result="shape"/>
</filter>
<filter id="filter9_d_27_304" x="244.11" y="242.329" width="19.0432" height="24.7561" filterUnits="userSpaceOnUse" color-interpolation-filters="sRGB">
<feFlood flood-opacity="0" result="BackgroundImageFix"/>
<feColorMatrix in="SourceAlpha" type="matrix" values="0 0 0 0 0 0 0 0 0 0 0 0 0 0 0 0 0 0 127 0" result="hardAlpha"/>
<feOffset dy="2.61059"/>
<feGaussianBlur stdDeviation="1.3053"/>
<feComposite in2="hardAlpha" operator="out"/>
<feColorMatrix type="matrix" values="0 0 0 0 0 0 0 0 0 0 0 0 0 0 0 0 0 0 0.25 0"/>
<feBlend mode="normal" in2="BackgroundImageFix" result="effect1_dropShadow_27_304"/>
<feBlend mode="normal" in="SourceGraphic" in2="effect1_dropShadow_27_304" result="shape"/>
</filter>
<filter id="filter10_d_27_304" x="138.511" y="208.915" width="73.8467" height="69.693" filterUnits="userSpaceOnUse" color-interpolation-filters="sRGB">
<feFlood flood-opacity="0" result="BackgroundImageFix"/>
<feColorMatrix in="SourceAlpha" type="matrix" values="0 0 0 0 0 0 0 0 0 0 0 0 0 0 0 0 0 0 127 0" result="hardAlpha"/>
<feOffset dy="3.76017"/>
<feGaussianBlur stdDeviation="1.07433"/>
<feComposite in2="hardAlpha" operator="out"/>
<feColorMatrix type="matrix" values="0 0 0 0 0 0 0 0 0 0 0 0 0 0 0 0 0 0 0.25 0"/>
<feBlend mode="normal" in2="BackgroundImageFix" result="effect1_dropShadow_27_304"/>
<feBlend mode="normal" in="SourceGraphic" in2="effect1_dropShadow_27_304" result="shape"/>
</filter>
<filter id="filter11_d_27_304" x="162.842" y="217.218" width="36.0376" height="40.2268" filterUnits="userSpaceOnUse" color-interpolation-filters="sRGB">
<feFlood flood-opacity="0" result="BackgroundImageFix"/>
<feColorMatrix in="SourceAlpha" type="matrix" values="0 0 0 0 0 0 0 0 0 0 0 0 0 0 0 0 0 0 127 0" result="hardAlpha"/>
<feOffset dy="2.14867"/>
<feGaussianBlur stdDeviation="1.07433"/>
<feComposite in2="hardAlpha" operator="out"/>
<feColorMatrix type="matrix" values="0 0 0 0 0 0 0 0 0 0 0 0 0 0 0 0 0 0 0.25 0"/>
<feBlend mode="normal" in2="BackgroundImageFix" result="effect1_dropShadow_27_304"/>
<feBlend mode="normal" in="SourceGraphic" in2="effect1_dropShadow_27_304" result="shape"/>
</filter>
<filter id="filter12_d_27_304" x="152.021" y="234.991" width="46.9857" height="22.9245" filterUnits="userSpaceOnUse" color-interpolation-filters="sRGB">
<feFlood flood-opacity="0" result="BackgroundImageFix"/>
<feColorMatrix in="SourceAlpha" type="matrix" values="0 0 0 0 0 0 0 0 0 0 0 0 0 0 0 0 0 0 127 0" result="hardAlpha"/>
<feOffset dy="2.14867"/>
<feGaussianBlur stdDeviation="1.07433"/>
<feComposite in2="hardAlpha" operator="out"/>
<feColorMatrix type="matrix" values="0 0 0 0 0 0 0 0 0 0 0 0 0 0 0 0 0 0 0.25 0"/>
<feBlend mode="normal" in2="BackgroundImageFix" result="effect1_dropShadow_27_304"/>
<feBlend mode="normal" in="SourceGraphic" in2="effect1_dropShadow_27_304" result="shape"/>
</filter>
<filter id="filter13_d_27_304" x="149.616" y="225.015" width="17.9527" height="18.1399" filterUnits="userSpaceOnUse" color-interpolation-filters="sRGB">
<feFlood flood-opacity="0" result="BackgroundImageFix"/>
<feColorMatrix in="SourceAlpha" type="matrix" values="0 0 0 0 0 0 0 0 0 0 0 0 0 0 0 0 0 0 127 0" result="hardAlpha"/>
<feOffset dy="2.14867"/>
<feGaussianBlur stdDeviation="1.07433"/>
<feComposite in2="hardAlpha" operator="out"/>
<feColorMatrix type="matrix" values="0 0 0 0 0 0 0 0 0 0 0 0 0 0 0 0 0 0 0.25 0"/>
<feBlend mode="normal" in2="BackgroundImageFix" result="effect1_dropShadow_27_304"/>
<feBlend mode="normal" in="SourceGraphic" in2="effect1_dropShadow_27_304" result="shape"/>
</filter>
</defs>
</svg>
