<svg width="125" height="48" viewBox="0 0 125 48" fill="none" xmlns="http://www.w3.org/2000/svg">
<path d="M10.3172 31.9001C7.96945 31.9001 6.0448 31.2312 4.5433 29.8935C3.0418 28.5558 1.93615 26.6858 1.22635 24.2834C0.516548 21.881 0.161648 19.11 0.161648 15.9705C0.161648 10.7835 0.994298 6.825 2.6596 4.095C4.3522 1.365 6.93205 0 10.3991 0C12.3374 0 13.9618 0.4914 15.2722 1.4742C16.5826 2.4297 17.5927 3.69915 18.3025 5.28255C19.0396 6.86595 19.4491 8.58585 19.531 10.4423L13.9208 11.6298C13.8662 10.7016 13.7161 9.7461 13.4704 8.7633C13.252 7.7805 12.8834 6.94785 12.3647 6.26535C11.846 5.58285 11.1226 5.2416 10.1944 5.2416C8.884 5.2416 7.9285 6.07425 7.3279 7.73955C6.7546 9.37755 6.46795 12.1212 6.46795 15.9705C6.46795 18.5913 6.5908 20.6798 6.8365 22.2359C7.0822 23.792 7.4917 24.9249 8.065 25.6347C8.6383 26.3172 9.38905 26.6585 10.3172 26.6585C11.2181 26.6585 11.9143 26.3718 12.4057 25.7985C12.8971 25.2252 13.252 24.5018 13.4704 23.6282C13.7161 22.7273 13.8662 21.8127 13.9208 20.8845L19.531 21.4988C19.4218 23.2733 19.0123 24.9659 18.3025 26.5766C17.62 28.16 16.6235 29.4431 15.3131 30.4259C14.0027 31.4087 12.3374 31.9001 10.3172 31.9001Z" fill="black"/>
<path d="M9.80039 47.1601C7.93365 47.1601 6.2565 46.8101 4.76894 46.1101C3.28138 45.3809 2.11467 44.2871 1.2688 42.8287C0.422933 41.3411 0 39.4598 0 37.1847L5.77523 36.5284C5.77523 38.1327 6.12524 39.4306 6.82527 40.4223C7.55447 41.4141 8.58992 41.9099 9.93164 41.9099C11.04 41.9099 11.8713 41.5891 12.4255 40.9474C12.9797 40.2765 13.2568 39.3869 13.2568 38.2785C13.2568 37.0826 12.9505 36.1493 12.338 35.4784C11.7255 34.8075 10.9379 34.195 9.97539 33.6408L5.99399 31.322C4.44809 30.4178 3.13554 29.2219 2.05633 27.7343C1.00629 26.2176 0.481269 24.3946 0.481269 22.2654C0.481269 20.5153 0.860451 18.9548 1.61881 17.5839C2.40635 16.1839 3.52931 15.0755 4.9877 14.2588C6.47526 13.4421 8.23991 13.0338 10.2817 13.0338C13.0234 13.0338 15.2256 13.8213 16.8882 15.3964C18.5799 16.9714 19.4549 19.334 19.5133 22.4841L13.738 23.7529C13.738 20.107 12.5422 18.284 10.1504 18.284C9.1587 18.284 8.37116 18.5902 7.78781 19.2028C7.23362 19.8153 6.95653 20.6611 6.95653 21.7404C6.95653 22.7904 7.21904 23.6508 7.74406 24.3217C8.29825 24.9926 9.07119 25.6197 10.0629 26.203L14.0006 28.5656C15.809 29.6448 17.2236 30.9282 18.2445 32.4158C19.2945 33.8742 19.8195 35.6826 19.8195 37.841C19.8195 39.7952 19.3966 41.4724 18.5507 42.8724C17.7049 44.2725 16.5236 45.3371 15.0068 46.0663C13.5193 46.7955 11.7838 47.1601 9.80039 47.1601Z" fill="black"/>
<path d="M29.5034 23.6628C28.1274 23.6628 26.9994 23.2708 26.1194 22.4868C25.2394 21.7028 24.5914 20.6068 24.1754 19.1988C23.7594 17.7908 23.5514 16.1668 23.5514 14.3268C23.5514 11.2868 24.0394 8.96675 25.0154 7.36675C26.0074 5.76675 27.5194 4.96675 29.5514 4.96675C30.6874 4.96675 31.6394 5.25475 32.4074 5.83075C33.1754 6.39075 33.7674 7.13475 34.1834 8.06275C34.6154 8.99075 34.8555 9.99875 34.9035 11.0868L31.6154 11.7828C31.5834 11.2388 31.4954 10.6788 31.3514 10.1028C31.2234 9.52675 31.0074 9.03875 30.7034 8.63875C30.3994 8.23875 29.9754 8.03875 29.4314 8.03875C28.6634 8.03875 28.1034 8.52675 27.7514 9.50275C27.4154 10.4628 27.2474 12.0708 27.2474 14.3268C27.2474 15.8628 27.3194 17.0868 27.4634 17.9988C27.6074 18.9108 27.8474 19.5748 28.1834 19.9908C28.5194 20.3908 28.9594 20.5908 29.5034 20.5908C30.0314 20.5908 30.4394 20.4228 30.7274 20.0868C31.0154 19.7508 31.2234 19.3268 31.3514 18.8148C31.4954 18.2868 31.5834 17.7508 31.6154 17.2068L34.9035 17.5668C34.8394 18.6068 34.5994 19.5988 34.1834 20.5428C33.7834 21.4708 33.1995 22.2228 32.4314 22.7988C31.6634 23.3748 30.6874 23.6628 29.5034 23.6628Z" fill="black"/>
<path d="M41.4089 23.6388C40.2089 23.6388 39.2329 23.3348 38.4809 22.7268C37.7449 22.1028 37.2009 21.2708 36.8489 20.2308C36.5129 19.1748 36.3449 17.9988 36.3449 16.7028C36.3449 15.3268 36.5449 14.1108 36.9449 13.0548C37.3449 11.9828 37.9209 11.1508 38.6729 10.5588C39.4249 9.95075 40.3289 9.64675 41.3849 9.64675C42.4729 9.64675 43.361 9.89475 44.049 10.3908C44.737 10.8868 45.2409 11.5588 45.5609 12.4068C45.8809 13.2388 46.0409 14.1908 46.0409 15.2628C46.0409 15.9988 46.0169 16.7748 45.9689 17.5908H39.7529C39.7689 18.1508 39.8249 18.7028 39.9209 19.2468C40.0169 19.7908 40.1849 20.2388 40.4249 20.5908C40.6649 20.9268 41.0089 21.0948 41.4569 21.0948C42.0009 21.0948 42.3689 20.8788 42.5609 20.4468C42.7689 20.0148 42.9049 19.5348 42.9689 19.0068L45.945 19.6308C45.721 20.8788 45.2009 21.8628 44.3849 22.5828C43.5849 23.2868 42.5929 23.6388 41.4089 23.6388ZM39.7529 15.4548H42.945V15.1188C42.945 14.6708 42.9049 14.2228 42.8249 13.7748C42.7449 13.3108 42.5929 12.9268 42.3689 12.6228C42.1609 12.3028 41.8569 12.1428 41.4569 12.1428C41.0409 12.1428 40.7129 12.3108 40.4729 12.6468C40.2329 12.9668 40.057 13.3828 39.945 13.8948C39.849 14.4068 39.7849 14.9268 39.7529 15.4548Z" fill="black"/>
<path d="M47.9578 23.3268V10.1988L51.1738 9.81475V13.1508C51.3658 12.1108 51.7498 11.2548 52.3258 10.5828C52.9178 9.91075 53.5818 9.57475 54.3178 9.57475C54.9418 9.57475 55.4058 9.72675 55.7098 10.0308L54.9898 13.2948C54.6538 13.0548 54.2458 12.9348 53.7658 12.9348C53.0778 12.9348 52.4938 13.2868 52.0138 13.9908C51.5498 14.6948 51.3178 15.6388 51.3178 16.8228V23.3268H47.9578Z" fill="black"/>
<path d="M61.6996 23.5668C60.6596 23.5668 59.8116 23.2628 59.1556 22.6548C58.4996 22.0468 58.1716 21.0708 58.1716 19.7268V12.3108H56.5396V9.79075H58.3156L58.6516 6.74275L61.5316 6.38275V9.79075H64.1716L63.8596 12.3108H61.5316V19.0548C61.5316 19.6628 61.6596 20.1108 61.9156 20.3988C62.1876 20.6868 62.5556 20.8308 63.0196 20.8308C63.2276 20.8308 63.4116 20.8228 63.5716 20.8068C63.7316 20.7748 63.8996 20.7428 64.0756 20.7108L63.7876 23.1588C63.4996 23.2868 63.1876 23.3828 62.8516 23.4468C62.5156 23.5268 62.1316 23.5668 61.6996 23.5668Z" fill="black"/>
<path d="M65.7714 23.3268V10.1268L69.1314 9.71875V23.3268H65.7714ZM65.9154 8.42275V5.23075H68.9874V8.42275H65.9154Z" fill="black"/>
<path d="M72.3028 23.3268V12.3108H70.7428V9.79075H72.3028V9.28675C72.3028 8.05475 72.6068 7.04675 73.2148 6.26275C73.8388 5.47875 74.8148 5.08675 76.1428 5.08675C76.9908 5.08675 77.7348 5.22275 78.3748 5.49475L78.2068 7.87075C77.8228 7.75875 77.4308 7.70275 77.0308 7.70275C76.5508 7.70275 76.1988 7.83875 75.9748 8.11075C75.7668 8.38275 75.6628 8.76675 75.6628 9.26275V9.79075H83.1028V23.3268H79.7428V12.3108H75.6628V23.3268H72.3028ZM79.8628 8.49475V5.30275H82.9828V8.49475H79.8628Z" fill="black"/>
<path d="M90.0395 23.6388C88.3435 23.6388 87.0875 23.0068 86.2715 21.7428C85.4715 20.4788 85.0715 18.7828 85.0715 16.6548C85.0715 15.2148 85.2715 13.9668 85.6715 12.9108C86.0875 11.8548 86.6795 11.0388 87.4475 10.4628C88.2155 9.87075 89.1195 9.57475 90.1595 9.57475C91.4875 9.57475 92.5595 9.99875 93.3755 10.8468C94.1915 11.6788 94.6555 12.8068 94.7675 14.2308L91.6475 14.8548C91.6155 14.4548 91.5515 14.0468 91.4555 13.6308C91.3755 13.2148 91.2315 12.8708 91.0235 12.5988C90.8155 12.3108 90.5275 12.1668 90.1595 12.1668C89.7115 12.1668 89.3675 12.3828 89.1275 12.8148C88.8875 13.2308 88.7195 13.7828 88.6235 14.4708C88.5435 15.1428 88.5035 15.8708 88.5035 16.6548C88.5035 18.0148 88.6235 19.0868 88.8635 19.8708C89.1195 20.6548 89.5515 21.0468 90.1595 21.0468C90.5435 21.0468 90.8395 20.9108 91.0475 20.6388C91.2715 20.3668 91.4315 20.0468 91.5275 19.6788C91.6235 19.2948 91.6795 18.9428 91.6955 18.6228L94.7675 18.9588C94.6715 19.8068 94.4155 20.5908 93.9995 21.3108C93.5995 22.0148 93.0635 22.5828 92.3915 23.0148C91.7195 23.4308 90.9355 23.6388 90.0395 23.6388Z" fill="black"/>
<path d="M99.1814 23.6148C98.2214 23.6148 97.4534 23.2788 96.8774 22.6068C96.3014 21.9188 96.0135 20.9748 96.0135 19.7748C96.0135 18.7188 96.2694 17.8628 96.7814 17.2068C97.3094 16.5348 98.0214 16.0468 98.9174 15.7428C99.8134 15.4228 100.829 15.2628 101.965 15.2628V14.0388C101.965 13.5428 101.869 13.1188 101.677 12.7668C101.501 12.3988 101.165 12.2148 100.669 12.2148C100.253 12.2148 99.9415 12.3988 99.7335 12.7668C99.5255 13.1188 99.3894 13.5428 99.3254 14.0388L96.3494 13.3908C96.5574 12.1108 97.0615 11.1588 97.8615 10.5348C98.6775 9.89475 99.6454 9.57475 100.765 9.57475C102.333 9.57475 103.485 9.99875 104.221 10.8468C104.957 11.6948 105.325 12.8788 105.325 14.3988V19.7748C105.325 20.4148 105.357 21.0308 105.421 21.6228C105.501 22.2148 105.629 22.7828 105.805 23.3268H102.541C102.317 22.7508 102.197 22.1668 102.181 21.5748C101.941 22.1508 101.573 22.6388 101.077 23.0388C100.597 23.4228 99.9655 23.6148 99.1814 23.6148ZM99.3494 19.2948C99.3494 19.7908 99.4534 20.1908 99.6614 20.4948C99.8854 20.7988 100.213 20.9508 100.645 20.9508C101.045 20.9508 101.365 20.8148 101.605 20.5428C101.845 20.2708 101.965 19.9188 101.965 19.4868V17.0628C101.133 17.0628 100.485 17.2788 100.021 17.7108C99.5734 18.1268 99.3494 18.6548 99.3494 19.2948Z" fill="black"/>
<path d="M111.832 23.5668C110.792 23.5668 109.944 23.2628 109.288 22.6548C108.632 22.0468 108.304 21.0708 108.304 19.7268V12.3108H106.672V9.79075H108.448L108.784 6.74275L111.664 6.38275V9.79075H114.304L113.992 12.3108H111.664V19.0548C111.664 19.6628 111.792 20.1108 112.048 20.3988C112.32 20.6868 112.688 20.8308 113.152 20.8308C113.36 20.8308 113.544 20.8228 113.704 20.8068C113.864 20.7748 114.032 20.7428 114.208 20.7108L113.92 23.1588C113.632 23.2868 113.32 23.3828 112.984 23.4468C112.648 23.5268 112.264 23.5668 111.832 23.5668Z" fill="black"/>
<path d="M120.182 23.6388C118.982 23.6388 118.006 23.3348 117.254 22.7268C116.518 22.1028 115.974 21.2708 115.622 20.2308C115.286 19.1748 115.118 17.9988 115.118 16.7028C115.118 15.3268 115.318 14.1108 115.718 13.0548C116.118 11.9828 116.694 11.1508 117.446 10.5588C118.198 9.95075 119.102 9.64675 120.158 9.64675C121.246 9.64675 122.134 9.89475 122.822 10.3908C123.51 10.8868 124.014 11.5588 124.334 12.4068C124.654 13.2388 124.814 14.1908 124.814 15.2628C124.814 15.9988 124.79 16.7748 124.742 17.5908H118.526C118.542 18.1508 118.598 18.7028 118.694 19.2468C118.79 19.7908 118.958 20.2388 119.198 20.5908C119.438 20.9268 119.782 21.0948 120.23 21.0948C120.774 21.0948 121.142 20.8788 121.334 20.4468C121.542 20.0148 121.678 19.5348 121.742 19.0068L124.718 19.6308C124.494 20.8788 123.974 21.8628 123.158 22.5828C122.358 23.2868 121.366 23.6388 120.182 23.6388ZM118.526 15.4548H121.718V15.1188C121.718 14.6708 121.678 14.2228 121.598 13.7748C121.518 13.3108 121.366 12.9268 121.142 12.6228C120.934 12.3028 120.63 12.1428 120.23 12.1428C119.814 12.1428 119.486 12.3108 119.246 12.6468C119.006 12.9668 118.83 13.3828 118.718 13.8948C118.622 14.4068 118.558 14.9268 118.526 15.4548Z" fill="black"/>
<path d="M59.7834 43.7108C58.7594 43.7108 57.8394 43.5188 57.0234 43.1348C56.2074 42.7348 55.5674 42.1348 55.1034 41.3348C54.6394 40.5188 54.4074 39.4868 54.4074 38.2388L57.5754 37.8788C57.5754 38.7588 57.7674 39.4708 58.1514 40.0148C58.5514 40.5588 59.1194 40.8308 59.8554 40.8308C60.4634 40.8308 60.9194 40.6548 61.2234 40.3028C61.5274 39.9348 61.6794 39.4468 61.6794 38.8388C61.6794 38.1828 61.5114 37.6708 61.1754 37.3028C60.8394 36.9348 60.4074 36.5988 59.8794 36.2948L57.6954 35.0228C56.8474 34.5268 56.1274 33.8708 55.5354 33.0548C54.9594 32.2228 54.6714 31.2228 54.6714 30.0548C54.6714 29.0948 54.8794 28.2388 55.2954 27.4868C55.7274 26.7188 56.3434 26.1108 57.1434 25.6628C57.9594 25.2148 58.9274 24.9908 60.0474 24.9908C61.5514 24.9908 62.7594 25.4228 63.6714 26.2868C64.5994 27.1508 65.0795 28.4468 65.1115 30.1748L61.9434 30.8708C61.9434 28.8708 61.2874 27.8708 59.9754 27.8708C59.4314 27.8708 58.9994 28.0388 58.6794 28.3748C58.3754 28.7108 58.2234 29.1748 58.2234 29.7668C58.2234 30.3428 58.3674 30.8148 58.6554 31.1828C58.9594 31.5508 59.3834 31.8948 59.9274 32.2148L62.0874 33.5108C63.0794 34.1028 63.8555 34.8068 64.4155 35.6228C64.9915 36.4228 65.2794 37.4148 65.2794 38.5988C65.2794 39.6708 65.0475 40.5908 64.5835 41.3588C64.1195 42.1268 63.4714 42.7108 62.6395 43.1108C61.8235 43.5108 60.8714 43.7108 59.7834 43.7108Z" fill="black"/>
<path d="M71.823 43.6388C70.623 43.6388 69.647 43.3348 68.895 42.7268C68.159 42.1028 67.615 41.2708 67.263 40.2308C66.927 39.1748 66.759 37.9988 66.759 36.7028C66.759 35.3268 66.959 34.1108 67.359 33.0548C67.759 31.9828 68.335 31.1508 69.087 30.5588C69.839 29.9508 70.743 29.6468 71.799 29.6468C72.887 29.6468 73.775 29.8948 74.463 30.3908C75.151 30.8868 75.655 31.5588 75.975 32.4068C76.295 33.2388 76.455 34.1908 76.455 35.2628C76.455 35.9988 76.431 36.7748 76.383 37.5908H70.167C70.183 38.1508 70.239 38.7028 70.335 39.2468C70.431 39.7908 70.599 40.2388 70.839 40.5908C71.079 40.9268 71.423 41.0948 71.871 41.0948C72.415 41.0948 72.783 40.8788 72.975 40.4468C73.183 40.0148 73.319 39.5348 73.383 39.0068L76.359 39.6308C76.135 40.8788 75.615 41.8628 74.799 42.5828C73.999 43.2868 73.007 43.6388 71.823 43.6388ZM70.167 35.4548H73.359V35.1188C73.359 34.6708 73.319 34.2228 73.239 33.7748C73.159 33.3108 73.007 32.9268 72.783 32.6228C72.575 32.3028 72.271 32.1428 71.871 32.1428C71.455 32.1428 71.127 32.3108 70.887 32.6468C70.647 32.9668 70.471 33.3828 70.359 33.8948C70.263 34.4068 70.199 34.9268 70.167 35.4548Z" fill="black"/>
<path d="M78.3718 43.3268V30.1988L81.5878 29.8148V33.1508C81.7798 32.1108 82.1638 31.2548 82.7398 30.5828C83.3318 29.9108 83.9958 29.5748 84.7318 29.5748C85.3558 29.5748 85.8198 29.7268 86.1238 30.0308L85.4038 33.2948C85.0678 33.0548 84.6598 32.9348 84.1798 32.9348C83.4918 32.9348 82.9078 33.2868 82.4278 33.9908C81.9638 34.6948 81.7318 35.6388 81.7318 36.8228V43.3268H78.3718Z" fill="black"/>
<path d="M90.072 43.3268L86.808 30.0548L90.12 29.6468L92.064 39.4148L94.224 29.7908H97.152L93.84 43.3268H90.072Z" fill="black"/>
<path d="M98.5058 43.3268V30.1268L101.866 29.7188V43.3268H98.5058ZM98.6498 28.4228V25.2308H101.722V28.4228H98.6498Z" fill="black"/>
<path d="M108.805 43.6388C107.109 43.6388 105.853 43.0068 105.037 41.7428C104.237 40.4788 103.837 38.7828 103.837 36.6548C103.837 35.2148 104.037 33.9668 104.437 32.9108C104.853 31.8548 105.445 31.0388 106.213 30.4628C106.981 29.8708 107.885 29.5748 108.925 29.5748C110.253 29.5748 111.325 29.9988 112.141 30.8468C112.957 31.6788 113.421 32.8068 113.533 34.2308L110.413 34.8548C110.381 34.4548 110.317 34.0468 110.221 33.6308C110.141 33.2148 109.997 32.8708 109.789 32.5988C109.581 32.3108 109.293 32.1668 108.925 32.1668C108.477 32.1668 108.133 32.3828 107.893 32.8148C107.653 33.2308 107.485 33.7828 107.389 34.4708C107.309 35.1428 107.269 35.8708 107.269 36.6548C107.269 38.0148 107.389 39.0868 107.629 39.8708C107.885 40.6548 108.317 41.0468 108.925 41.0468C109.309 41.0468 109.605 40.9108 109.813 40.6388C110.037 40.3668 110.197 40.0468 110.293 39.6788C110.389 39.2948 110.445 38.9428 110.461 38.6228L113.533 38.9588C113.437 39.8068 113.181 40.5908 112.765 41.3108C112.365 42.0148 111.829 42.5828 111.157 43.0148C110.485 43.4308 109.701 43.6388 108.805 43.6388Z" fill="black"/>
<path d="M119.987 43.6388C118.787 43.6388 117.811 43.3348 117.059 42.7268C116.323 42.1028 115.779 41.2708 115.427 40.2308C115.091 39.1748 114.923 37.9988 114.923 36.7028C114.923 35.3268 115.123 34.1108 115.523 33.0548C115.923 31.9828 116.499 31.1508 117.251 30.5588C118.003 29.9508 118.907 29.6468 119.963 29.6468C121.051 29.6468 121.939 29.8948 122.627 30.3908C123.315 30.8868 123.819 31.5588 124.139 32.4068C124.459 33.2388 124.619 34.1908 124.619 35.2628C124.619 35.9988 124.595 36.7748 124.547 37.5908H118.331C118.347 38.1508 118.403 38.7028 118.499 39.2468C118.595 39.7908 118.763 40.2388 119.003 40.5908C119.243 40.9268 119.587 41.0948 120.035 41.0948C120.579 41.0948 120.947 40.8788 121.139 40.4468C121.347 40.0148 121.483 39.5348 121.547 39.0068L124.523 39.6308C124.299 40.8788 123.779 41.8628 122.963 42.5828C122.163 43.2868 121.171 43.6388 119.987 43.6388ZM118.331 35.4548H121.523V35.1188C121.523 34.6708 121.483 34.2228 121.403 33.7748C121.323 33.3108 121.171 32.9268 120.947 32.6228C120.739 32.3028 120.435 32.1428 120.035 32.1428C119.619 32.1428 119.291 32.3108 119.051 32.6468C118.811 32.9668 118.635 33.3828 118.523 33.8948C118.427 34.4068 118.363 34.9268 118.331 35.4548Z" fill="black"/>
<path d="M33.4954 43.6388C31.8794 43.6388 30.6234 43.0228 29.7274 41.7908C28.8474 40.5588 28.4074 38.8388 28.4074 36.6308C28.4074 35.2228 28.5994 33.9988 28.9834 32.9588C29.3834 31.9188 29.9594 31.1108 30.7114 30.5348C31.4794 29.9428 32.4074 29.6468 33.4954 29.6468C34.5834 29.6468 35.5034 29.9348 36.2554 30.5108C37.0234 31.0868 37.6075 31.8948 38.0075 32.9348C38.4235 33.9748 38.6315 35.2068 38.6315 36.6308C38.6315 38.8548 38.1754 40.5828 37.2634 41.8148C36.3674 43.0308 35.1114 43.6388 33.4954 43.6388ZM33.4954 41.0468C33.9754 41.0468 34.3354 40.8308 34.5754 40.3988C34.8314 39.9508 34.9994 39.3908 35.0794 38.7188C35.1594 38.0308 35.1994 37.3348 35.1994 36.6308C35.1994 36.1828 35.1754 35.7028 35.1274 35.1908C35.0794 34.6788 34.9994 34.1988 34.8874 33.7508C34.7754 33.3028 34.6074 32.9428 34.3834 32.6708C34.1594 32.3828 33.8634 32.2388 33.4954 32.2388C33.1434 32.2388 32.8554 32.3828 32.6314 32.6708C32.4074 32.9428 32.2394 33.3028 32.1274 33.7508C32.0154 34.1988 31.9354 34.6788 31.8874 35.1908C31.8554 35.6868 31.8394 36.1668 31.8394 36.6308C31.8394 37.3348 31.8794 38.0308 31.9594 38.7188C32.0394 39.3908 32.1994 39.9508 32.4394 40.3988C32.6794 40.8308 33.0314 41.0468 33.4954 41.0468Z" fill="black"/>
<path d="M41.2793 43.3268V32.3108H39.7193V29.7908H41.2793V29.2868C41.2793 28.0548 41.5833 27.0468 42.1913 26.2628C42.8153 25.4788 43.7913 25.0868 45.1193 25.0868C45.9673 25.0868 46.7113 25.2228 47.3513 25.4948L47.1833 27.8708C46.7993 27.7588 46.4073 27.7028 46.0073 27.7028C45.5273 27.7028 45.1753 27.8388 44.9513 28.1108C44.7433 28.3828 44.6393 28.7668 44.6393 29.2628V29.7908H47.1833L46.8713 32.3108H44.6393V43.3268H41.2793Z" fill="black"/>
</svg>
