<svg width="20" height="48" viewBox="0 0 20 48" fill="none" xmlns="http://www.w3.org/2000/svg">
<path d="M10.3172 31.9001C7.96945 31.9001 6.0448 31.2312 4.5433 29.8935C3.0418 28.5558 1.93615 26.6858 1.22635 24.2834C0.516548 21.881 0.161648 19.11 0.161648 15.9705C0.161648 10.7835 0.994298 6.825 2.6596 4.095C4.3522 1.365 6.93205 0 10.3991 0C12.3374 0 13.9618 0.4914 15.2722 1.4742C16.5826 2.4297 17.5927 3.69915 18.3025 5.28255C19.0396 6.86595 19.4491 8.58585 19.531 10.4423L13.9208 11.6298C13.8662 10.7016 13.7161 9.7461 13.4704 8.7633C13.252 7.7805 12.8834 6.94785 12.3647 6.26535C11.846 5.58285 11.1226 5.2416 10.1944 5.2416C8.884 5.2416 7.9285 6.07425 7.3279 7.73955C6.7546 9.37755 6.46795 12.1212 6.46795 15.9705C6.46795 18.5913 6.5908 20.6798 6.8365 22.2359C7.0822 23.792 7.4917 24.9249 8.065 25.6347C8.6383 26.3172 9.38905 26.6585 10.3172 26.6585C11.2181 26.6585 11.9143 26.3718 12.4057 25.7985C12.8971 25.2252 13.252 24.5018 13.4704 23.6282C13.7161 22.7273 13.8662 21.8127 13.9208 20.8845L19.531 21.4988C19.4218 23.2733 19.0123 24.9659 18.3025 26.5766C17.62 28.16 16.6235 29.4431 15.3131 30.4259C14.0027 31.4087 12.3374 31.9001 10.3172 31.9001Z" fill="black"/>
<path d="M9.80039 47.1601C7.93365 47.1601 6.2565 46.8101 4.76894 46.1101C3.28138 45.3809 2.11467 44.2871 1.2688 42.8287C0.422933 41.3411 0 39.4598 0 37.1847L5.77523 36.5284C5.77523 38.1327 6.12524 39.4306 6.82527 40.4223C7.55447 41.4141 8.58992 41.9099 9.93164 41.9099C11.04 41.9099 11.8713 41.5891 12.4255 40.9474C12.9797 40.2765 13.2568 39.3869 13.2568 38.2785C13.2568 37.0826 12.9505 36.1493 12.338 35.4784C11.7255 34.8075 10.9379 34.195 9.97539 33.6408L5.99399 31.322C4.44809 30.4178 3.13554 29.2219 2.05633 27.7343C1.00629 26.2176 0.481269 24.3946 0.481269 22.2654C0.481269 20.5153 0.860451 18.9548 1.61881 17.5839C2.40635 16.1839 3.52931 15.0755 4.9877 14.2588C6.47526 13.4421 8.23991 13.0338 10.2817 13.0338C13.0234 13.0338 15.2256 13.8213 16.8882 15.3964C18.5799 16.9714 19.4549 19.334 19.5133 22.4841L13.738 23.7529C13.738 20.107 12.5422 18.284 10.1504 18.284C9.1587 18.284 8.37116 18.5902 7.78781 19.2028C7.23362 19.8153 6.95653 20.6611 6.95653 21.7404C6.95653 22.7904 7.21904 23.6508 7.74406 24.3217C8.29825 24.9926 9.07119 25.6197 10.0629 26.203L14.0006 28.5656C15.809 29.6448 17.2236 30.9282 18.2445 32.4158C19.2945 33.8742 19.8195 35.6826 19.8195 37.841C19.8195 39.7952 19.3966 41.4724 18.5507 42.8724C17.7049 44.2725 16.5236 45.3371 15.0068 46.0663C13.5193 46.7955 11.7838 47.1601 9.80039 47.1601Z" fill="black"/>
</svg>
