<svg width="400" height="17" viewBox="0 0 400 17" fill="none" xmlns="http://www.w3.org/2000/svg">
<g opacity="0.9">
<line y1="8.67392" x2="182.232" y2="8.67392" stroke="#181515"/>
<line x1="217.768" y1="8.67392" x2="400" y2="8.67392" stroke="#181515"/>
</g>
<path opacity="0.8" d="M200.551 8.36364C200.551 9.14015 200.409 9.80777 200.125 10.3665C199.841 10.9228 199.451 11.3513 198.957 11.652C198.464 11.9503 197.904 12.0994 197.277 12.0994C196.647 12.0994 196.085 11.9503 195.59 11.652C195.098 11.3513 194.709 10.9216 194.425 10.3629C194.141 9.80421 193.999 9.13778 193.999 8.36364C193.999 7.58712 194.141 6.92069 194.425 6.36435C194.709 5.80563 195.098 5.37713 195.59 5.07884C196.085 4.77817 196.647 4.62784 197.277 4.62784C197.904 4.62784 198.464 4.77817 198.957 5.07884C199.451 5.37713 199.841 5.80563 200.125 6.36435C200.409 6.92069 200.551 7.58712 200.551 8.36364ZM199.464 8.36364C199.464 7.77178 199.369 7.27344 199.177 6.86861C198.987 6.46141 198.727 6.15365 198.396 5.94531C198.066 5.73461 197.694 5.62926 197.277 5.62926C196.858 5.62926 196.484 5.73461 196.155 5.94531C195.826 6.15365 195.565 6.46141 195.373 6.86861C195.184 7.27344 195.089 7.77178 195.089 8.36364C195.089 8.95549 195.184 9.45502 195.373 9.86222C195.565 10.267 195.826 10.5748 196.155 10.7855C196.484 10.9938 196.858 11.098 197.277 11.098C197.694 11.098 198.066 10.9938 198.396 10.7855C198.727 10.5748 198.987 10.267 199.177 9.86222C199.369 9.45502 199.464 8.95549 199.464 8.36364ZM201.919 12V4.72727H204.511C205.075 4.72727 205.542 4.82434 205.914 5.01847C206.288 5.21259 206.568 5.4813 206.752 5.82457C206.937 6.16548 207.029 6.55966 207.029 7.0071C207.029 7.45218 206.936 7.84399 206.749 8.18253C206.564 8.5187 206.285 8.7803 205.911 8.96733C205.539 9.15436 205.071 9.24787 204.508 9.24787H202.544V8.30327H204.408C204.764 8.30327 205.052 8.25237 205.275 8.15057C205.5 8.04877 205.664 7.9008 205.769 7.70668C205.873 7.51255 205.925 7.27936 205.925 7.0071C205.925 6.73248 205.872 6.49455 205.765 6.29332C205.661 6.09209 205.496 5.93821 205.271 5.83168C205.049 5.72277 204.756 5.66832 204.394 5.66832H203.016V12H201.919ZM205.509 8.71875L207.306 12H206.056L204.295 8.71875H205.509Z" fill="black"/>
</svg>
