<svg width="446" height="281" viewBox="0 0 446 281" fill="none" xmlns="http://www.w3.org/2000/svg">
<path d="M55.5328 2.87183H209.074C214.087 2.87183 218.879 4.94059 222.316 8.5896L273.67 63.1042C276.849 66.4794 278.62 70.942 278.62 75.5789V260.428C278.62 270.475 270.475 278.62 260.428 278.62H55.5328C45.4859 278.62 37.3406 270.475 37.3404 260.428V21.0642C37.3404 11.0172 45.4858 2.87183 55.5328 2.87183Z" fill="#D9D9D9" stroke="#838383" stroke-width="1.91491"/>
<path d="M55.5328 2.87183H209.074C214.087 2.87183 218.879 4.94059 222.316 8.5896L273.67 63.1042C276.849 66.4794 278.62 70.942 278.62 75.5789V260.428C278.62 270.475 270.475 278.62 260.428 278.62H55.5328C45.4859 278.62 37.3406 270.475 37.3404 260.428V21.0642C37.3404 11.0172 45.4858 2.87183 55.5328 2.87183Z" fill="#D9D9D9" stroke="#838383" stroke-width="1.91491"/>
<g filter="url(#filter0_d_27_263)">
<path d="M216.385 1.91479L279.66 66.9842L217.433 67.971L216.385 1.91479Z" fill="#838383"/>
<path d="M277.426 66.0613L218.374 66.9978L217.38 4.31226L277.426 66.0613Z" stroke="#838383" stroke-width="1.91491"/>
</g>
<g filter="url(#filter1_d_27_263)">
<rect x="7.65967" y="164.682" width="191.491" height="74.6816" rx="19.1491" fill="#838383"/>
</g>
<path d="M80.45 135.959L235.534 135.959" stroke="#838383" stroke-width="3.82983"/>
<path d="M80.4263 68.9363L148.406 68.9363" stroke="#838383" stroke-width="3.82983"/>
<path d="M80.4498 113.937L176.172 113.937M80.4499 91.9158L202.981 91.9158" stroke="#838383" stroke-width="3.82983"/>
<path d="M68.5397 219.915V183.915H77.0837C81.3397 183.915 84.5557 184.875 86.7317 186.795C88.9397 188.683 90.0437 191.483 90.0437 195.195C90.0437 198.939 88.9237 201.819 86.6837 203.835C84.4757 205.819 81.2757 206.811 77.0837 206.811H75.5957V219.915H68.5397ZM75.5957 200.955H77.6117C79.3397 200.955 80.6677 200.475 81.5957 199.515C82.5237 198.523 82.9877 197.131 82.9877 195.339C82.9877 191.627 81.1957 189.771 77.6117 189.771H75.5957V200.955ZM94.274 219.915V183.915H102.962C107.25 183.915 110.61 185.467 113.042 188.571C115.506 191.643 116.738 196.091 116.738 201.915C116.738 207.707 115.506 212.155 113.042 215.259C110.61 218.363 107.25 219.915 102.962 219.915H94.274ZM101.33 214.059H102.962C104.946 214.059 106.514 213.115 107.666 211.227C108.85 209.339 109.442 206.235 109.442 201.915C109.442 197.595 108.85 194.491 107.666 192.603C106.514 190.715 104.946 189.771 102.962 189.771H101.33V214.059ZM121.368 219.915V183.915H140.088L139.368 189.771H128.424V199.035H137.4L136.68 204.891H128.424V219.915H121.368Z" fill="white"/>
<g filter="url(#filter2_d_27_263)">
<g filter="url(#filter3_d_27_263)">
<path d="M402.443 113.758C404.699 112.682 406.806 115.475 405.152 117.348L354.603 174.609C353.81 175.508 352.458 175.645 351.5 174.922L324.613 154.632C323.239 153.595 323.453 151.471 325.006 150.729L402.443 113.758Z" fill="#838383"/>
</g>
<g filter="url(#filter4_d_27_263)">
<path d="M359.528 180.98C358.548 180.241 358.323 178.861 359.018 177.849L402.592 114.377C403.983 112.35 407.157 113.634 406.747 116.059L392.295 201.507C392.008 203.204 390.024 203.993 388.65 202.956L359.528 180.98Z" fill="#D9D9D9"/>
</g>
<g filter="url(#filter5_d_27_263)">
<path d="M364.913 194.863C364.567 194.913 349.844 199.708 342.237 202.19C340.025 202.911 337.758 201.286 337.738 198.96C337.661 190.205 337.559 172.262 338.017 172.587C338.624 173.017 365.381 194.795 364.913 194.863Z" fill="#838383"/>
</g>
</g>
<g filter="url(#filter6_d_27_263)">
<g filter="url(#filter7_d_27_263)">
<path d="M307.456 238.073C308.834 238.424 308.738 240.412 307.333 240.628L264.398 247.258C263.724 247.362 263.083 246.929 262.928 246.265L258.561 227.611C258.338 226.657 259.204 225.807 260.153 226.048L307.456 238.073Z" fill="#838383"/>
</g>
<g filter="url(#filter8_d_27_263)">
<path d="M264.232 251.835C264.073 251.155 264.477 250.47 265.148 250.281L307.296 238.398C308.642 238.018 309.561 239.735 308.5 240.645L271.083 272.733C270.339 273.37 269.185 272.993 268.962 272.04L264.232 251.835Z" fill="#D9D9D9"/>
</g>
<g filter="url(#filter9_d_27_263)">
<path d="M261.533 259.863C261.363 259.759 253.183 256.496 248.954 254.812C247.725 254.322 247.326 252.787 248.163 251.763C251.317 247.908 257.803 240.028 257.885 240.337C257.993 240.746 261.762 260.003 261.533 259.863Z" fill="#838383"/>
</g>
</g>
<g filter="url(#filter10_d_27_263)">
<g filter="url(#filter11_d_27_263)">
<path d="M197.551 249.483C198.185 250.466 197.012 251.611 196.045 250.953L166.461 230.868C165.997 230.553 165.854 229.933 166.132 229.446L173.963 215.759C174.364 215.059 175.363 215.033 175.799 215.711L197.551 249.483Z" fill="#838383"/>
</g>
<g filter="url(#filter12_d_27_263)">
<path d="M163.794 233.532C164.08 233.033 164.707 232.848 165.218 233.11L197.273 249.588C198.296 250.115 197.888 251.664 196.738 251.617L156.201 249.964C155.396 249.931 154.913 249.056 155.313 248.357L163.794 233.532Z" fill="#D9D9D9"/>
</g>
<g filter="url(#filter13_d_27_263)">
<path d="M157.666 236.855C157.622 236.697 154.524 230.144 152.921 226.758C152.456 225.774 153.076 224.625 154.155 224.477C158.216 223.924 166.543 222.814 166.419 223.047C166.255 223.354 157.726 237.068 157.666 236.855Z" fill="#838383"/>
</g>
</g>
<defs>
<filter id="filter0_d_27_263" x="208.726" y="-0.000118732" width="78.5937" height="81.3755" filterUnits="userSpaceOnUse" color-interpolation-filters="sRGB">
<feFlood flood-opacity="0" result="BackgroundImageFix"/>
<feColorMatrix in="SourceAlpha" type="matrix" values="0 0 0 0 0 0 0 0 0 0 0 0 0 0 0 0 0 0 127 0" result="hardAlpha"/>
<feOffset dy="5.74474"/>
<feGaussianBlur stdDeviation="3.82983"/>
<feComposite in2="hardAlpha" operator="out"/>
<feColorMatrix type="matrix" values="0 0 0 0 0 0 0 0 0 0 0 0 0 0 0 0 0 0 0.25 0"/>
<feBlend mode="normal" in2="BackgroundImageFix" result="effect1_dropShadow_27_263"/>
<feBlend mode="normal" in="SourceGraphic" in2="effect1_dropShadow_27_263" result="shape"/>
</filter>
<filter id="filter1_d_27_263" x="1.38283e-05" y="164.682" width="206.811" height="90.0009" filterUnits="userSpaceOnUse" color-interpolation-filters="sRGB">
<feFlood flood-opacity="0" result="BackgroundImageFix"/>
<feColorMatrix in="SourceAlpha" type="matrix" values="0 0 0 0 0 0 0 0 0 0 0 0 0 0 0 0 0 0 127 0" result="hardAlpha"/>
<feOffset dy="7.65965"/>
<feGaussianBlur stdDeviation="3.82983"/>
<feComposite in2="hardAlpha" operator="out"/>
<feColorMatrix type="matrix" values="0 0 0 0 0 0 0 0 0 0 0 0 0 0 0 0 0 0 0.25 0"/>
<feBlend mode="normal" in2="BackgroundImageFix" result="effect1_dropShadow_27_263"/>
<feBlend mode="normal" in="SourceGraphic" in2="effect1_dropShadow_27_263" result="shape"/>
</filter>
<filter id="filter2_d_27_263" x="298.07" y="80.9148" width="152.097" height="162.035" filterUnits="userSpaceOnUse" color-interpolation-filters="sRGB">
<feFlood flood-opacity="0" result="BackgroundImageFix"/>
<feColorMatrix in="SourceAlpha" type="matrix" values="0 0 0 0 0 0 0 0 0 0 0 0 0 0 0 0 0 0 127 0" result="hardAlpha"/>
<feOffset dy="8.03214"/>
<feGaussianBlur stdDeviation="2.2949"/>
<feComposite in2="hardAlpha" operator="out"/>
<feColorMatrix type="matrix" values="0 0 0 0 0 0 0 0 0 0 0 0 0 0 0 0 0 0 0.25 0"/>
<feBlend mode="normal" in2="BackgroundImageFix" result="effect1_dropShadow_27_263"/>
<feBlend mode="normal" in="SourceGraphic" in2="effect1_dropShadow_27_263" result="shape"/>
</filter>
<filter id="filter3_d_27_263" x="319.11" y="113.519" width="91.2239" height="71.0463" filterUnits="userSpaceOnUse" color-interpolation-filters="sRGB">
<feFlood flood-opacity="0" result="BackgroundImageFix"/>
<feColorMatrix in="SourceAlpha" type="matrix" values="0 0 0 0 0 0 0 0 0 0 0 0 0 0 0 0 0 0 127 0" result="hardAlpha"/>
<feOffset dy="4.5898"/>
<feGaussianBlur stdDeviation="2.2949"/>
<feComposite in2="hardAlpha" operator="out"/>
<feColorMatrix type="matrix" values="0 0 0 0 0 0 0 0 0 0 0 0 0 0 0 0 0 0 0.25 0"/>
<feBlend mode="normal" in2="BackgroundImageFix" result="effect1_dropShadow_27_263"/>
<feBlend mode="normal" in="SourceGraphic" in2="effect1_dropShadow_27_263" result="shape"/>
</filter>
<filter id="filter4_d_27_263" x="354.025" y="113.372" width="57.3474" height="99.2289" filterUnits="userSpaceOnUse" color-interpolation-filters="sRGB">
<feFlood flood-opacity="0" result="BackgroundImageFix"/>
<feColorMatrix in="SourceAlpha" type="matrix" values="0 0 0 0 0 0 0 0 0 0 0 0 0 0 0 0 0 0 127 0" result="hardAlpha"/>
<feOffset dy="4.5898"/>
<feGaussianBlur stdDeviation="2.2949"/>
<feComposite in2="hardAlpha" operator="out"/>
<feColorMatrix type="matrix" values="0 0 0 0 0 0 0 0 0 0 0 0 0 0 0 0 0 0 0.25 0"/>
<feBlend mode="normal" in2="BackgroundImageFix" result="effect1_dropShadow_27_263"/>
<feBlend mode="normal" in="SourceGraphic" in2="effect1_dropShadow_27_263" result="shape"/>
</filter>
<filter id="filter5_d_27_263" x="333.081" y="172.583" width="36.4283" height="38.9596" filterUnits="userSpaceOnUse" color-interpolation-filters="sRGB">
<feFlood flood-opacity="0" result="BackgroundImageFix"/>
<feColorMatrix in="SourceAlpha" type="matrix" values="0 0 0 0 0 0 0 0 0 0 0 0 0 0 0 0 0 0 127 0" result="hardAlpha"/>
<feOffset dy="4.5898"/>
<feGaussianBlur stdDeviation="2.2949"/>
<feComposite in2="hardAlpha" operator="out"/>
<feColorMatrix type="matrix" values="0 0 0 0 0 0 0 0 0 0 0 0 0 0 0 0 0 0 0.25 0"/>
<feBlend mode="normal" in2="BackgroundImageFix" result="effect1_dropShadow_27_263"/>
<feBlend mode="normal" in="SourceGraphic" in2="effect1_dropShadow_27_263" result="shape"/>
</filter>
<filter id="filter6_d_27_263" x="238.049" y="213.915" width="83.5796" height="71.4723" filterUnits="userSpaceOnUse" color-interpolation-filters="sRGB">
<feFlood flood-opacity="0" result="BackgroundImageFix"/>
<feColorMatrix in="SourceAlpha" type="matrix" values="0 0 0 0 0 0 0 0 0 0 0 0 0 0 0 0 0 0 127 0" result="hardAlpha"/>
<feOffset dy="4.56854"/>
<feGaussianBlur stdDeviation="1.3053"/>
<feComposite in2="hardAlpha" operator="out"/>
<feColorMatrix type="matrix" values="0 0 0 0 0 0 0 0 0 0 0 0 0 0 0 0 0 0 0.25 0"/>
<feBlend mode="normal" in2="BackgroundImageFix" result="effect1_dropShadow_27_263"/>
<feBlend mode="normal" in="SourceGraphic" in2="effect1_dropShadow_27_263" result="shape"/>
</filter>
<filter id="filter7_d_27_263" x="255.915" y="226.007" width="55.1356" height="26.4878" filterUnits="userSpaceOnUse" color-interpolation-filters="sRGB">
<feFlood flood-opacity="0" result="BackgroundImageFix"/>
<feColorMatrix in="SourceAlpha" type="matrix" values="0 0 0 0 0 0 0 0 0 0 0 0 0 0 0 0 0 0 127 0" result="hardAlpha"/>
<feOffset dy="2.61059"/>
<feGaussianBlur stdDeviation="1.3053"/>
<feComposite in2="hardAlpha" operator="out"/>
<feColorMatrix type="matrix" values="0 0 0 0 0 0 0 0 0 0 0 0 0 0 0 0 0 0 0.25 0"/>
<feBlend mode="normal" in2="BackgroundImageFix" result="effect1_dropShadow_27_263"/>
<feBlend mode="normal" in="SourceGraphic" in2="effect1_dropShadow_27_263" result="shape"/>
</filter>
<filter id="filter8_d_27_263" x="261.587" y="238.344" width="49.9862" height="39.9258" filterUnits="userSpaceOnUse" color-interpolation-filters="sRGB">
<feFlood flood-opacity="0" result="BackgroundImageFix"/>
<feColorMatrix in="SourceAlpha" type="matrix" values="0 0 0 0 0 0 0 0 0 0 0 0 0 0 0 0 0 0 127 0" result="hardAlpha"/>
<feOffset dy="2.61059"/>
<feGaussianBlur stdDeviation="1.3053"/>
<feComposite in2="hardAlpha" operator="out"/>
<feColorMatrix type="matrix" values="0 0 0 0 0 0 0 0 0 0 0 0 0 0 0 0 0 0 0.25 0"/>
<feBlend mode="normal" in2="BackgroundImageFix" result="effect1_dropShadow_27_263"/>
<feBlend mode="normal" in="SourceGraphic" in2="effect1_dropShadow_27_263" result="shape"/>
</filter>
<filter id="filter9_d_27_263" x="245.11" y="240.329" width="19.0432" height="24.7561" filterUnits="userSpaceOnUse" color-interpolation-filters="sRGB">
<feFlood flood-opacity="0" result="BackgroundImageFix"/>
<feColorMatrix in="SourceAlpha" type="matrix" values="0 0 0 0 0 0 0 0 0 0 0 0 0 0 0 0 0 0 127 0" result="hardAlpha"/>
<feOffset dy="2.61059"/>
<feGaussianBlur stdDeviation="1.3053"/>
<feComposite in2="hardAlpha" operator="out"/>
<feColorMatrix type="matrix" values="0 0 0 0 0 0 0 0 0 0 0 0 0 0 0 0 0 0 0.25 0"/>
<feBlend mode="normal" in2="BackgroundImageFix" result="effect1_dropShadow_27_263"/>
<feBlend mode="normal" in="SourceGraphic" in2="effect1_dropShadow_27_263" result="shape"/>
</filter>
<filter id="filter10_d_27_263" x="139.511" y="206.915" width="73.8466" height="69.693" filterUnits="userSpaceOnUse" color-interpolation-filters="sRGB">
<feFlood flood-opacity="0" result="BackgroundImageFix"/>
<feColorMatrix in="SourceAlpha" type="matrix" values="0 0 0 0 0 0 0 0 0 0 0 0 0 0 0 0 0 0 127 0" result="hardAlpha"/>
<feOffset dy="3.76017"/>
<feGaussianBlur stdDeviation="1.07433"/>
<feComposite in2="hardAlpha" operator="out"/>
<feColorMatrix type="matrix" values="0 0 0 0 0 0 0 0 0 0 0 0 0 0 0 0 0 0 0.25 0"/>
<feBlend mode="normal" in2="BackgroundImageFix" result="effect1_dropShadow_27_263"/>
<feBlend mode="normal" in="SourceGraphic" in2="effect1_dropShadow_27_263" result="shape"/>
</filter>
<filter id="filter11_d_27_263" x="163.842" y="215.218" width="36.0375" height="40.2268" filterUnits="userSpaceOnUse" color-interpolation-filters="sRGB">
<feFlood flood-opacity="0" result="BackgroundImageFix"/>
<feColorMatrix in="SourceAlpha" type="matrix" values="0 0 0 0 0 0 0 0 0 0 0 0 0 0 0 0 0 0 127 0" result="hardAlpha"/>
<feOffset dy="2.14867"/>
<feGaussianBlur stdDeviation="1.07433"/>
<feComposite in2="hardAlpha" operator="out"/>
<feColorMatrix type="matrix" values="0 0 0 0 0 0 0 0 0 0 0 0 0 0 0 0 0 0 0.25 0"/>
<feBlend mode="normal" in2="BackgroundImageFix" result="effect1_dropShadow_27_263"/>
<feBlend mode="normal" in="SourceGraphic" in2="effect1_dropShadow_27_263" result="shape"/>
</filter>
<filter id="filter12_d_27_263" x="153.021" y="232.991" width="46.9857" height="22.9245" filterUnits="userSpaceOnUse" color-interpolation-filters="sRGB">
<feFlood flood-opacity="0" result="BackgroundImageFix"/>
<feColorMatrix in="SourceAlpha" type="matrix" values="0 0 0 0 0 0 0 0 0 0 0 0 0 0 0 0 0 0 127 0" result="hardAlpha"/>
<feOffset dy="2.14867"/>
<feGaussianBlur stdDeviation="1.07433"/>
<feComposite in2="hardAlpha" operator="out"/>
<feColorMatrix type="matrix" values="0 0 0 0 0 0 0 0 0 0 0 0 0 0 0 0 0 0 0.25 0"/>
<feBlend mode="normal" in2="BackgroundImageFix" result="effect1_dropShadow_27_263"/>
<feBlend mode="normal" in="SourceGraphic" in2="effect1_dropShadow_27_263" result="shape"/>
</filter>
<filter id="filter13_d_27_263" x="150.616" y="223.015" width="17.9527" height="18.1399" filterUnits="userSpaceOnUse" color-interpolation-filters="sRGB">
<feFlood flood-opacity="0" result="BackgroundImageFix"/>
<feColorMatrix in="SourceAlpha" type="matrix" values="0 0 0 0 0 0 0 0 0 0 0 0 0 0 0 0 0 0 127 0" result="hardAlpha"/>
<feOffset dy="2.14867"/>
<feGaussianBlur stdDeviation="1.07433"/>
<feComposite in2="hardAlpha" operator="out"/>
<feColorMatrix type="matrix" values="0 0 0 0 0 0 0 0 0 0 0 0 0 0 0 0 0 0 0.25 0"/>
<feBlend mode="normal" in2="BackgroundImageFix" result="effect1_dropShadow_27_263"/>
<feBlend mode="normal" in="SourceGraphic" in2="effect1_dropShadow_27_263" result="shape"/>
</filter>
</defs>
</svg>
